<?xml version="1.0" encoding="utf-8"?>
<!-- Generator: Adobe Illustrator 24.2.1, SVG Export Plug-In . SVG Version: 6.00 Build 0)  -->
<svg version="1.1" id="Layer_1" xmlns="http://www.w3.org/2000/svg" xmlns:xlink="http://www.w3.org/1999/xlink" x="0px" y="0px"
	 viewBox="0 0 63 36" style="enable-background:new 0 0 63 36;" xml:space="preserve">
<style type="text/css">
	.st0{fill:#4D4D4D;}
	.st1{fill:#FFDD15;}
	.st2{fill:#2B388F;}
	.st3{fill:#FFFFFF;}
</style>
<g>
	<path class="st0" d="M16.36,16.49c0,2.02-0.6,3.7-1.78,5.03c-1.23,1.38-2.84,2.08-4.84,2.08c-0.73,0-1.51-0.18-2.34-0.54
		c-0.85-0.36-1.22-0.54-1.15-0.54c-0.12,0-0.18,0.15-0.18,0.43c0,0.49,0.02,1.21,0.07,2.18S6.2,26.82,6.2,27.3
		c0,0.3-0.16,0.45-0.46,0.45l-2.9,0.02c-0.65,0-1.07-0.02-1.26-0.07c-0.28-0.07-0.43-0.24-0.43-0.53l0.03-10.93
		c0-2.2-0.17-4.06-0.5-5.58c-0.02-0.09-0.03-0.18-0.03-0.24c0-0.15,0.06-0.24,0.17-0.28c0.37-0.15,1.07-0.29,2.11-0.45
		c1.02-0.16,1.75-0.24,2.2-0.24c0.37,0,0.58,0.25,0.63,0.73c0.06,0.49,0.11,0.73,0.19,0.73c-0.09,0,0.3-0.26,1.22-0.78
		c0.9-0.52,1.73-0.78,2.46-0.78c2.05,0,3.69,0.68,4.92,2.03C15.76,12.69,16.36,14.4,16.36,16.49z"/>
	<path class="st1" d="M11.08,16.45c0-0.76-0.24-1.42-0.7-1.99c-0.5-0.6-1.12-0.89-1.86-0.89c-0.76,0-1.37,0.29-1.82,0.89
		c-0.4,0.54-0.6,1.2-0.6,1.99c0,0.8,0.2,1.47,0.62,2c0.46,0.59,1.07,0.87,1.86,0.87C10.25,19.32,11.08,18.37,11.08,16.45z"/>
	<path class="st0" d="M27.61,14.47c0,0.37-0.2,0.55-0.61,0.55c-0.18,0-0.44-0.01-0.79-0.03c-0.35-0.02-0.6-0.03-0.78-0.03
		c-0.79,0-1.32,0.12-1.6,0.37c-0.28,0.25-0.43,0.75-0.43,1.49c0,0.41,0.01,1.03,0.02,1.85c0.01,0.82,0.02,1.44,0.02,1.85
		c0,0.27,0.02,0.69,0.06,1.23c0.03,0.54,0.06,0.95,0.06,1.22c0,0.23-0.16,0.35-0.46,0.38c-0.45,0.03-1.15,0.06-2.09,0.06
		c-0.9,0-1.61-0.02-2.16-0.09c-0.32-0.03-0.46-0.19-0.46-0.46c0-0.76,0-1.89,0.01-3.4c0.01-1.51,0.01-2.64,0.01-3.4
		c0-2.22-0.2-4.05-0.61-5.5c-0.02-0.09-0.03-0.16-0.03-0.21c0-0.15,0.07-0.24,0.21-0.28c0.52-0.06,1.29-0.16,2.28-0.32
		c1.49-0.29,2.27-0.44,2.31-0.44c0.17,0,0.28,0.29,0.33,0.89c0.05,0.6,0.14,0.89,0.26,0.89c-0.14,0,0.26-0.25,1.16-0.75
		c0.91-0.5,1.78-0.75,2.63-0.75c0.53,0,0.79,0.11,0.79,0.34c0,0.27-0.03,0.67-0.09,1.16c-0.06,0.54-0.09,0.93-0.1,1.16
		c0,0.27,0,0.64,0.01,1.1C27.6,13.92,27.61,14.29,27.61,14.47z"/>
	<path class="st0" d="M46.66,13.97c-0.01,0-0.29-0.08-0.86-0.23c-0.56-0.15-1.02-0.23-1.37-0.23c-0.85,0-1.51,0.25-2.02,0.76
		c-0.5,0.51-0.75,1.19-0.75,2.02c0,0.87,0.27,1.56,0.82,2.05c0.55,0.5,1.26,0.75,2.14,0.75c0.42,0,0.88-0.1,1.4-0.32
		c0.52-0.21,0.77-0.32,0.73-0.32c0.16,0,0.37,0.6,0.62,1.81c0.21,1.09,0.33,1.83,0.33,2.19s-0.59,0.67-1.76,0.93
		c-0.9,0.2-1.64,0.29-2.2,0.29c-2.08,0-3.8-0.7-5.15-2.1c-1.35-1.4-2.03-3.15-2.03-5.24c0-2.08,0.68-3.82,2.03-5.23
		c1.35-1.41,3.07-2.12,5.15-2.12c1.41,0,2.65,0.3,3.71,0.9c0.25,0.14,0.37,0.26,0.37,0.38s-0.15,0.68-0.43,1.67
		c-0.26,0.96-0.44,1.54-0.52,1.73C46.82,13.87,46.75,13.97,46.66,13.97z"/>
	<path class="st0" d="M62.36,15.61c0,0.96-0.3,1.5-0.93,1.64c-0.1,0.02-1.08,0.12-2.94,0.32c-1.12,0.12-2.78,0.27-5,0.44
		c0.14,0.61,0.53,1.08,1.21,1.4c0.55,0.26,1.17,0.4,1.87,0.4c0.85,0,1.69-0.23,2.54-0.68c0.36-0.23,0.72-0.45,1.08-0.68
		c0.2,0.09,0.53,0.58,1,1.44c0.46,0.87,0.7,1.42,0.7,1.66c0,0.07-0.07,0.18-0.21,0.33c-1.15,1.24-2.95,1.86-5.38,1.86
		c-2.26,0-4.06-0.65-5.45-1.98c-1.42-1.33-2.13-3.12-2.13-5.35c0-2.18,0.63-3.96,1.91-5.35c1.31-1.43,3.04-2.16,5.19-2.16
		c1.82,0,3.36,0.67,4.63,1.99C61.73,12.21,62.36,13.78,62.36,15.61z"/>
	<path class="st2" d="M57.39,14.74c0-0.59-0.2-1.11-0.62-1.55c-0.42-0.44-0.91-0.67-1.49-0.67c-0.6,0-1.08,0.25-1.48,0.76
		c-0.36,0.46-0.54,1-0.54,1.64c0,0.26,0.14,0.38,0.4,0.38c0.7,0,1.78-0.11,3.26-0.33C57.23,14.92,57.39,14.84,57.39,14.74z"/>
	<path class="st0" d="M32.4,5.81c-1.67,0-3.09-0.85-3.67-2.16c0.28,1.74,1.82,2.92,3.67,2.92c1.85,0,3.39-1.17,3.67-2.92
		C35.49,4.96,34.07,5.81,32.4,5.81z"/>
	<circle class="st0" cx="30.08" cy="1.16" r="1"/>
	<rect x="33.26" y="0.74" class="st0" width="2.36" height="0.8"/>
	<g>
		<polygon class="st1" points="35.68,23.54 29.04,25.71 29.04,27.48 27.75,28.3 37.06,26.2 35.68,25.53 		"/>
		<polygon class="st1" points="35.68,26.78 29.04,29.06 29.04,30.71 28.12,31.51 37.06,29.42 35.68,28.75 		"/>
		<polygon class="st1" points="29.61,32.07 32.4,35.85 33.9,33.82 32.14,33.87 35.48,32.8 34.91,32.42 35.68,31.38 35.68,30.08 		
			"/>
		<path class="st1" d="M27.75,24.95l9.46-2.01l-1.52-0.8l0,0V10.79c0,0,0-0.35,0.49-0.77c0.23-0.19,0.96-0.71,0.96-0.71
			c0.1-0.11,0.03-0.29-0.12-0.29h-4.65H27.7c-0.15,0-0.23,0.18-0.12,0.29c0,0,0.75,0.53,0.96,0.71c0.49,0.42,0.49,0.77,0.49,0.77
			v11.35l0,0v1.98L27.75,24.95z"/>
	</g>
	<path class="st1" d="M27.75,24.86l9.46-2.01l-1.52-0.8l0,0V10.71c0,0,0-0.35,0.49-0.77c0.23-0.19,0.96-0.71,0.96-0.71
		c0.1-0.11,0.03-0.29-0.12-0.29h-4.65H27.7c-0.15,0-0.23,0.18-0.12,0.29c0,0,0.75,0.53,0.96,0.71c0.49,0.42,0.49,0.77,0.49,0.77
		v11.35l0,0v1.98L27.75,24.86z"/>
	<path class="st0" d="M27.75,24.77l9.46-2.01l-1.52-0.8l0,0V10.62c0,0,0-0.35,0.49-0.77c0.23-0.19,0.96-0.71,0.96-0.71
		c0.1-0.11,0.03-0.29-0.12-0.29h-4.65H27.7c-0.15,0-0.23,0.18-0.12,0.29c0,0,0.75,0.53,0.96,0.71c0.49,0.42,0.49,0.77,0.49,0.77
		v11.35l0,0v1.98L27.75,24.77z"/>
	<g>
		<path class="st3" d="M32.23,19.33c0.43,0,0.81,0.14,1.13,0.41c0.28,0.24,0.43,0.58,0.45,1c0,0.08,0,0.3,0,0.68
			c0,0.07,0,0.17-0.01,0.32c0,0.14-0.01,0.25-0.01,0.32c0,0.05-0.01,0.07-0.05,0.07c-0.16,0-0.41-0.01-0.73-0.02
			c-0.33-0.01-0.56-0.02-0.73-0.02s-0.42,0.01-0.76,0.02s-0.59,0.02-0.76,0.02c-0.03,0-0.05-0.02-0.06-0.07
			c-0.01-0.1-0.02-0.27-0.02-0.5c0-0.44,0.01-0.72,0.02-0.86c0.03-0.34,0.12-0.6,0.26-0.79c0.14-0.18,0.32-0.32,0.55-0.43
			C31.75,19.38,31.99,19.33,32.23,19.33z M32.23,20.14c-0.25,0-0.45,0.07-0.61,0.21c-0.16,0.15-0.25,0.34-0.25,0.58
			c0,0.21,0.03,0.33,0.09,0.33c0.09,0,0.21,0,0.4,0c0.17,0,0.3,0,0.4,0s0.21,0,0.38,0s0.3,0,0.38,0c0.07,0,0.09-0.11,0.09-0.34
			c0-0.25-0.08-0.44-0.25-0.58C32.7,20.21,32.49,20.14,32.23,20.14z"/>
		<path class="st3" d="M32.42,17.59c0.06,0,0.09,0.03,0.09,0.09c0,0.02,0,0.07,0,0.12c0,0.06,0,0.09,0,0.11
			c0,0.11,0.02,0.2,0.06,0.24c0.03,0.05,0.11,0.07,0.24,0.07c0.07,0,0.16,0,0.28,0s0.23,0,0.28,0c0.05,0,0.1,0,0.19-0.01
			c0.08-0.01,0.15-0.01,0.19-0.01c0.03,0,0.06,0.02,0.06,0.07c0.01,0.07,0.01,0.17,0.01,0.32c0,0.14,0,0.25-0.01,0.33
			c-0.01,0.05-0.03,0.07-0.07,0.07c-0.11,0-0.29,0-0.53,0s-0.41,0-0.53,0c-0.35,0-0.63,0.03-0.86,0.09c-0.01,0-0.02,0-0.03,0
			c-0.02,0-0.03-0.01-0.05-0.03c-0.01-0.08-0.02-0.19-0.05-0.34c-0.05-0.23-0.07-0.34-0.07-0.35c0-0.02,0.05-0.05,0.14-0.05
			c0.09-0.01,0.14-0.02,0.14-0.03c0,0.02-0.03-0.03-0.11-0.18c-0.08-0.14-0.11-0.27-0.11-0.4c0-0.08,0.02-0.12,0.06-0.12
			c0.05,0,0.1,0,0.18,0.01c0.08,0.01,0.15,0.01,0.18,0.01c0.05,0,0.1,0,0.17,0C32.33,17.59,32.39,17.59,32.42,17.59z"/>
		<path class="st3" d="M31.14,16.5c0.26,0,0.38,0.14,0.38,0.42c0,0.12-0.03,0.21-0.1,0.29c-0.07,0.09-0.17,0.12-0.28,0.12
			c-0.11,0-0.2-0.05-0.28-0.14c-0.07-0.08-0.1-0.18-0.1-0.29c0-0.11,0.03-0.2,0.1-0.29C30.93,16.54,31.03,16.5,31.14,16.5z
			 M32.78,16.56c0.11,0,0.27,0,0.47-0.01c0.21,0,0.37-0.01,0.47-0.01c0.03,0,0.05,0.02,0.06,0.06c0.01,0.05,0.01,0.16,0.01,0.33
			s0,0.28-0.01,0.33c-0.01,0.03-0.01,0.05-0.03,0.06c-0.01,0-0.02,0-0.07,0c-0.1,0-0.25,0-0.46-0.01c-0.2,0-0.36-0.01-0.46-0.01
			c-0.42,0-0.75,0.01-0.99,0.05c-0.02,0-0.03,0-0.05,0c-0.03,0-0.05-0.02-0.05-0.06c0-0.05,0-0.1,0.01-0.18
			c0.01-0.08,0.01-0.15,0.01-0.18c0-0.05,0-0.1-0.01-0.18c-0.01-0.08-0.01-0.15-0.01-0.18c0-0.03,0.01-0.06,0.05-0.06
			c0.01,0,0.02,0,0.05,0C32.07,16.54,32.4,16.56,32.78,16.56z"/>
		<path class="st3" d="M32.47,15.36c0.41,0,0.71,0,0.93,0c0.03,0,0.09,0,0.17-0.01c0.08,0,0.14-0.01,0.17-0.01
			c0.03,0,0.05,0.02,0.06,0.06c0.01,0.07,0.02,0.18,0.02,0.35c0,0.17-0.01,0.28-0.02,0.33c-0.01,0.03-0.02,0.05-0.06,0.06
			c0,0-0.03,0-0.09,0c-0.14,0-0.33,0-0.59,0s-0.45,0-0.59,0c-0.62,0-0.9,0-0.85,0c-0.33,0-0.61,0.02-0.84,0.06
			c-0.01,0-0.03,0-0.03,0c-0.03,0-0.05-0.02-0.05-0.06v-0.77c0-0.03,0.01-0.06,0.05-0.05h0.05C31.42,15.35,31.98,15.36,32.47,15.36z
			"/>
		<path class="st3" d="M32.47,14.2c0.41,0,0.71,0,0.93,0c0.03,0,0.09,0,0.17-0.01c0.08,0,0.14-0.01,0.17-0.01
			c0.03,0,0.05,0.02,0.06,0.06c0.01,0.07,0.02,0.18,0.02,0.35c0,0.17-0.01,0.28-0.02,0.33c-0.01,0.03-0.02,0.05-0.06,0.06
			c0,0-0.03,0-0.09,0c-0.14,0-0.33,0-0.59,0s-0.45,0-0.59,0c-0.62,0-0.9,0-0.85,0c-0.33,0-0.61,0.02-0.84,0.06
			c-0.01,0-0.03,0-0.03,0c-0.03,0-0.05-0.02-0.05-0.06V14.2c0-0.03,0.01-0.06,0.05-0.05h0.05C31.42,14.17,31.98,14.2,32.47,14.2z"/>
		<path class="st3" d="M32.59,11.85c0.15,0,0.24,0.05,0.25,0.14c0,0.01,0.02,0.16,0.05,0.44c0.02,0.17,0.05,0.42,0.07,0.76
			c0.09-0.02,0.17-0.08,0.21-0.18c0.05-0.08,0.06-0.18,0.06-0.28c0-0.12-0.03-0.26-0.1-0.38c-0.03-0.06-0.07-0.11-0.1-0.16
			c0.01-0.03,0.09-0.08,0.23-0.15c0.14-0.07,0.23-0.1,0.26-0.1c0.01,0,0.02,0.01,0.05,0.03c0.19,0.17,0.29,0.44,0.29,0.81
			c0,0.34-0.1,0.61-0.3,0.82c-0.2,0.21-0.49,0.32-0.84,0.32c-0.34,0-0.61-0.09-0.84-0.28c-0.23-0.19-0.34-0.46-0.34-0.78
			c0-0.27,0.1-0.51,0.3-0.7C32.07,11.94,32.31,11.85,32.59,11.85z M32.45,12.59c-0.09,0-0.17,0.03-0.24,0.09
			c-0.07,0.07-0.1,0.14-0.1,0.23s0.03,0.17,0.11,0.23c0.07,0.06,0.16,0.08,0.25,0.08c0.05,0,0.06-0.02,0.06-0.06
			c0-0.1-0.01-0.27-0.06-0.5C32.49,12.62,32.48,12.59,32.45,12.59z"/>
		<path class="st3" d="M32.42,10.2c0.06,0,0.09,0.03,0.09,0.09c0,0.02,0,0.07,0,0.12c0,0.06,0,0.09,0,0.11
			c0,0.11,0.02,0.2,0.06,0.24c0.03,0.05,0.11,0.07,0.24,0.07c0.07,0,0.16,0,0.28,0s0.23,0,0.28,0c0.05,0,0.1,0,0.19-0.01
			c0.08-0.01,0.15-0.01,0.19-0.01c0.03,0,0.06,0.02,0.06,0.07c0.01,0.07,0.01,0.17,0.01,0.32c0,0.14,0,0.25-0.01,0.33
			c-0.01,0.05-0.03,0.07-0.07,0.07c-0.11,0-0.29,0-0.53,0s-0.41,0-0.53,0c-0.35,0-0.63,0.03-0.86,0.09c-0.01,0-0.02,0-0.03,0
			c-0.02,0-0.03-0.01-0.05-0.03c-0.01-0.08-0.02-0.19-0.05-0.34c-0.05-0.23-0.07-0.34-0.07-0.35c0-0.02,0.05-0.05,0.14-0.05
			c0.09-0.01,0.14-0.02,0.14-0.03c0,0.02-0.03-0.03-0.11-0.18c-0.08-0.14-0.11-0.27-0.11-0.4c0-0.08,0.02-0.12,0.06-0.12
			c0.05,0,0.1,0,0.18,0.01c0.08,0.01,0.15,0.01,0.18,0.01c0.05,0,0.1,0,0.17,0C32.33,10.2,32.39,10.2,32.42,10.2z"/>
	</g>
	<polygon class="st0" points="35.68,23.37 29.04,25.53 29.04,27.31 27.75,28.11 37.06,26.03 35.68,25.36 	"/>
	<polygon class="st0" points="35.68,26.6 29.04,28.88 29.04,30.53 28.12,31.34 37.06,29.25 35.68,28.58 	"/>
	<polygon class="st0" points="29.61,31.9 32.4,35.68 33.9,33.63 32.14,33.69 35.48,32.62 34.91,32.24 35.68,31.21 35.68,29.9 	"/>
</g>
</svg>
