<?xml version="1.0" encoding="utf-8"?>
<!-- Generator: Adobe Illustrator 24.2.1, SVG Export Plug-In . SVG Version: 6.00 Build 0)  -->
<svg version="1.1" id="Layer_1" xmlns="http://www.w3.org/2000/svg" xmlns:xlink="http://www.w3.org/1999/xlink" x="0px" y="0px"
	 viewBox="0 0 110 20" style="enable-background:new 0 0 110 20;" xml:space="preserve">
<style type="text/css">
	.st0{fill:#231F20;}
	.st1{fill:#FFDD15;}
	.st2{fill:#2B388F;}
	.st3{fill:#FFFFFF;}
</style>
<path class="st0" d="M14.6,9.4c0,1.6-0.4,2.9-1.2,3.8c-0.9,1-2.1,1.6-3.7,1.6c-0.3,0-0.7,0-1.2,0c-0.5,0-0.9,0-1.2,0
	c-0.3,0-0.4,0.1-0.4,0.4c0,0.3,0,0.7,0.1,1.3c0.1,0.6,0.1,1,0.1,1.3C7.1,17.9,7,18,6.9,18c-0.4,0-1,0-1.8,0c-0.8,0-1.4,0-1.8,0
	c-0.2,0-0.3-0.1-0.3-0.3c0-0.7,0-1.8,0-3.3c0-1.5,0-2.5,0-3.3c0-2-0.1-4.2-0.3-6.5l0-0.1c0-0.1,0.1-0.2,0.3-0.2
	c0.5-0.1,1.6-0.1,3.4-0.1c1,0,2,0,2.9,0c1.5,0,2.8,0.5,3.7,1.5C14.1,6.6,14.6,7.9,14.6,9.4z"/>
<path class="st1" d="M10.7,9.6c0-1.5-0.7-2.3-2.2-2.3c-1,0-1.6,0.1-1.6,0.2c0,0.1-0.1,0.8-0.1,2.3c0,0.2,0,0.5,0,0.9
	c0,0.4,0,0.7,0,0.9c0,0.1,0.6,0.2,1.8,0.2C10,11.7,10.7,11,10.7,9.6z"/>
<path class="st0" d="M22.4,11.8c0,0.3-0.1,0.4-0.4,0.4c-0.1,0-0.3,0-0.5,0c-0.2,0-0.4,0-0.5,0c-0.5,0-0.9,0.1-1.1,0.3
	c-0.2,0.2-0.3,0.5-0.3,1c0,0.3,0,0.7,0,1.3c0,0.6,0,1,0,1.3c0,0.2,0,0.5,0,0.8c0,0.4,0,0.7,0,0.8c0,0.2-0.1,0.2-0.3,0.3
	c-0.3,0-0.8,0-1.4,0c-0.6,0-1.1,0-1.5-0.1c-0.2,0-0.3-0.1-0.3-0.3c0-0.5,0-1.3,0-2.3c0-1,0-1.8,0-2.3c0-1.5-0.1-2.8-0.4-3.8
	c0-0.1,0-0.1,0-0.1c0-0.1,0-0.2,0.1-0.2c0.4,0,0.9-0.1,1.6-0.2c1-0.2,1.6-0.3,1.6-0.3c0.1,0,0.2,0.2,0.2,0.6c0,0.4,0.1,0.6,0.2,0.6
	c-0.1,0,0.2-0.2,0.8-0.5c0.6-0.3,1.2-0.5,1.8-0.5c0.4,0,0.5,0.1,0.5,0.2c0,0.2,0,0.5-0.1,0.8c0,0.4-0.1,0.6-0.1,0.8
	c0,0.2,0,0.4,0,0.8C22.4,11.4,22.4,11.7,22.4,11.8z"/>
<path class="st0" d="M35.5,11.5c0,0-0.2-0.1-0.6-0.2s-0.7-0.2-0.9-0.2c-0.6,0-1,0.2-1.4,0.5c-0.3,0.3-0.5,0.8-0.5,1.4
	c0,0.6,0.2,1.1,0.6,1.4c0.4,0.3,0.9,0.5,1.5,0.5c0.3,0,0.6-0.1,1-0.2c0.4-0.1,0.5-0.2,0.5-0.2c0.1,0,0.3,0.4,0.4,1.2
	c0.2,0.8,0.2,1.3,0.2,1.5c0,0.2-0.4,0.5-1.2,0.6c-0.6,0.1-1.1,0.2-1.5,0.2c-1.4,0-2.6-0.5-3.6-1.4c-0.9-1-1.4-2.2-1.4-3.6
	c0-1.4,0.5-2.6,1.4-3.6c0.9-1,2.1-1.5,3.5-1.5c1,0,1.8,0.2,2.6,0.6c0.2,0.1,0.3,0.2,0.3,0.3c0,0.1-0.1,0.5-0.3,1.2
	c-0.2,0.7-0.3,1.1-0.4,1.2C35.6,11.4,35.6,11.5,35.5,11.5z"/>
<path class="st0" d="M46.3,12.6c0,0.7-0.2,1-0.6,1.1c-0.1,0-0.7,0.1-2,0.2c-0.8,0.1-1.9,0.2-3.4,0.3c0.1,0.4,0.4,0.7,0.8,1
	c0.4,0.2,0.8,0.3,1.3,0.3c0.6,0,1.2-0.2,1.8-0.5c0.2-0.2,0.5-0.3,0.7-0.5c0.1,0.1,0.4,0.4,0.7,1c0.3,0.6,0.5,1,0.5,1.1
	c0,0,0,0.1-0.1,0.2c-0.8,0.9-2,1.3-3.7,1.3c-1.6,0-2.8-0.5-3.8-1.4c-1-0.9-1.5-2.1-1.5-3.7c0-1.5,0.4-2.7,1.3-3.7
	c0.9-1,2.1-1.5,3.6-1.5c1.3,0,2.3,0.5,3.2,1.4C45.9,10.3,46.3,11.3,46.3,12.6z"/>
<path class="st2" d="M42.9,12c0-0.4-0.1-0.8-0.4-1.1s-0.6-0.5-1-0.5c-0.4,0-0.8,0.2-1,0.5c-0.2,0.3-0.4,0.7-0.4,1.1
	c0,0.2,0.1,0.3,0.3,0.3c0.5,0,1.2-0.1,2.3-0.2C42.8,12.1,42.9,12.1,42.9,12z"/>
<path class="st0" d="M65.3,11c0,1.9-0.6,3.6-1.8,5c-1.1,1.3-2.6,1.9-4.6,2c-0.4,0-1.4,0-3.1,0c-0.3,0-0.8,0-1.4,0s-1.1,0-1.4,0
	c-0.2,0-0.3-0.1-0.3-0.2c0-0.7,0-1.8,0.1-3.2c0.1-1.4,0.1-2.5,0.1-3.2c0-0.7,0-1.9-0.1-3.4c-0.1-1.5-0.1-2.6-0.1-3.4
	c0-0.1,0.1-0.2,0.3-0.2c0.5-0.1,1.2-0.1,2.3-0.1c2,0,3.3,0,3.9,0.1c1.5,0.2,2.8,0.5,3.6,1.2c0.8,0.6,1.5,1.4,1.9,2.5
	C65,8.9,65.3,9.9,65.3,11z"/>
<path class="st1" d="M61.5,11c0-1.1-0.3-2-1-2.7c-0.7-0.7-1.5-1.1-2.6-1.1c-1,0-1.5,0.1-1.5,0.4c0,0.4,0,1,0,1.7c0,0.8,0,1.4,0,1.7
	c0,0.4,0,0.9,0,1.7c0,0.8,0,1.3,0,1.7c0,0.3,0.5,0.4,1.6,0.4c1.1,0,2-0.4,2.7-1.1C61.2,13.1,61.5,12.1,61.5,11z"/>
<path class="st0" d="M73.2,11.8c0,0.3-0.1,0.4-0.4,0.4c-0.1,0-0.3,0-0.5,0c-0.2,0-0.4,0-0.5,0c-0.5,0-0.9,0.1-1.1,0.3
	c-0.2,0.2-0.3,0.5-0.3,1c0,0.3,0,0.7,0,1.3c0,0.6,0,1,0,1.3c0,0.2,0,0.5,0,0.8c0,0.4,0,0.7,0,0.8c0,0.2-0.1,0.2-0.3,0.3
	c-0.3,0-0.8,0-1.4,0c-0.6,0-1.1,0-1.5-0.1c-0.2,0-0.3-0.1-0.3-0.3c0-0.5,0-1.3,0-2.3c0-1,0-1.8,0-2.3c0-1.5-0.1-2.8-0.4-3.8
	c0-0.1,0-0.1,0-0.1c0-0.1,0-0.2,0.1-0.2c0.4,0,0.9-0.1,1.6-0.2c1-0.2,1.6-0.3,1.6-0.3c0.1,0,0.2,0.2,0.2,0.6c0,0.4,0.1,0.6,0.2,0.6
	c-0.1,0,0.2-0.2,0.8-0.5c0.6-0.3,1.2-0.5,1.8-0.5c0.4,0,0.5,0.1,0.5,0.2c0,0.2,0,0.5-0.1,0.8c0,0.4-0.1,0.6-0.1,0.8
	c0,0.2,0,0.4,0,0.8C73.2,11.4,73.2,11.7,73.2,11.8z"/>
<path class="st0" d="M78,13.4c0,0.5,0,1.2,0,2.1c0,0.9,0,1.6,0,2.1c0,0.1-0.1,0.2-0.2,0.2C77.5,18,77,18,76.3,18
	c-0.8,0-1.3,0-1.5-0.1c-0.1,0-0.2-0.1-0.3-0.1c0,0,0-0.1,0-0.3c0-0.4,0-1.1,0-2c0-0.9,0-1.6,0-2c0-1.9-0.1-3.3-0.2-4.4
	c0-0.1,0-0.2,0-0.2c0-0.1,0.1-0.2,0.3-0.2c0.2,0,0.5,0,0.8,0.1c0.4,0,0.7,0.1,0.8,0.1c0.2,0,0.5,0,0.9,0c0.4,0,0.7,0,0.9,0
	c0.2,0,0.2,0.1,0.2,0.2c0,0,0,0.1,0,0.2C78,10.3,78,11.8,78,13.4z M78.2,6.2c0,1.1-0.6,1.7-1.9,1.7c-0.5,0-1-0.1-1.4-0.4
	c-0.4-0.3-0.6-0.7-0.6-1.3c0-0.5,0.2-0.9,0.6-1.3c0.4-0.3,0.8-0.4,1.3-0.4c0.5,0,0.9,0.2,1.3,0.5C78,5.2,78.2,5.7,78.2,6.2z"/>
<path class="st0" d="M83.4,12c0,1.8,0,3.1,0,4.1c0,0.1,0,0.4,0,0.8c0,0.3,0,0.6,0,0.8c0,0.1-0.1,0.2-0.2,0.2
	C82.9,18,82.4,18,81.7,18c-0.8,0-1.3,0-1.5-0.1c-0.1,0-0.2-0.1-0.2-0.3c0,0,0-0.2,0-0.4c0-0.6,0-1.4,0-2.6c0-1.2,0-2,0-2.6
	c0-2.7,0-4,0-3.7c0-1.4-0.1-2.7-0.2-3.7c0-0.1,0-0.1,0-0.2c0-0.1,0.1-0.2,0.3-0.2h3.5c0.2,0,0.2,0.1,0.2,0.2l0,0.2
	C83.5,7.4,83.4,9.9,83.4,12z"/>
<path class="st0" d="M88.8,12c0,1.8,0,3.1,0,4.1c0,0.1,0,0.4,0,0.8c0,0.3,0,0.6,0,0.8c0,0.1-0.1,0.2-0.2,0.2C88.3,18,87.8,18,87,18
	c-0.8,0-1.3,0-1.5-0.1c-0.1,0-0.2-0.1-0.2-0.3c0,0,0-0.2,0-0.4c0-0.6,0-1.4,0-2.6c0-1.2,0-2,0-2.6c0-2.7,0-4,0-3.7
	c0-1.4-0.1-2.7-0.2-3.7c0-0.1,0-0.1,0-0.2c0-0.1,0.1-0.2,0.3-0.2h3.5C89,4.2,89,4.2,89,4.4l0,0.2C88.8,7.4,88.8,9.9,88.8,12z"/>
<path class="st0" d="M99.5,12.6c0,0.7-0.2,1-0.6,1.1c-0.1,0-0.7,0.1-2,0.2c-0.8,0.1-1.9,0.2-3.4,0.3c0.1,0.4,0.4,0.7,0.8,1
	c0.4,0.2,0.8,0.3,1.3,0.3c0.6,0,1.2-0.2,1.8-0.5c0.2-0.2,0.5-0.3,0.7-0.5c0.1,0.1,0.4,0.4,0.7,1c0.3,0.6,0.5,1,0.5,1.1
	c0,0,0,0.1-0.1,0.2c-0.8,0.9-2,1.3-3.7,1.3c-1.6,0-2.8-0.5-3.8-1.4c-1-0.9-1.5-2.1-1.5-3.7c0-1.5,0.4-2.7,1.3-3.7
	C92.3,8.5,93.5,8,95,8c1.3,0,2.3,0.5,3.2,1.4C99.1,10.3,99.5,11.3,99.5,12.6z"/>
<path class="st2" d="M96.1,12c0-0.4-0.1-0.8-0.4-1.1c-0.3-0.3-0.6-0.5-1-0.5c-0.4,0-0.8,0.2-1,0.5c-0.2,0.3-0.4,0.7-0.4,1.1
	c0,0.2,0.1,0.3,0.3,0.3c0.5,0,1.2-0.1,2.3-0.2C96,12.1,96.1,12.1,96.1,12z"/>
<path class="st0" d="M107.1,11.8c0,0.3-0.1,0.4-0.4,0.4c-0.1,0-0.3,0-0.5,0c-0.2,0-0.4,0-0.5,0c-0.5,0-0.9,0.1-1.1,0.3
	c-0.2,0.2-0.3,0.5-0.3,1c0,0.3,0,0.7,0,1.3c0,0.6,0,1,0,1.3c0,0.2,0,0.5,0,0.8c0,0.4,0,0.7,0,0.8c0,0.2-0.1,0.2-0.3,0.3
	c-0.3,0-0.8,0-1.4,0c-0.6,0-1.1,0-1.5-0.1c-0.2,0-0.3-0.1-0.3-0.3c0-0.5,0-1.3,0-2.3c0-1,0-1.8,0-2.3c0-1.5-0.1-2.8-0.4-3.8
	c0-0.1,0-0.1,0-0.1c0-0.1,0-0.2,0.1-0.2c0.4,0,0.9-0.1,1.6-0.2c1-0.2,1.6-0.3,1.6-0.3c0.1,0,0.2,0.2,0.2,0.6c0,0.4,0.1,0.6,0.2,0.6
	c-0.1,0,0.2-0.2,0.8-0.5c0.6-0.3,1.2-0.5,1.8-0.5c0.4,0,0.5,0.1,0.5,0.2c0,0.2,0,0.5-0.1,0.8c0,0.4-0.1,0.6-0.1,0.8
	c0,0.2,0,0.4,0,0.8C107.1,11.4,107.1,11.7,107.1,11.8z"/>
<g>
	<path class="st0" d="M25.4,3.5c-0.9,0-1.7-0.5-2-1.2c0.2,0.9,1,1.6,2,1.6c1,0,1.8-0.6,2-1.6C27.1,3,26.3,3.5,25.4,3.5z"/>
	<circle class="st0" cx="24.2" cy="0.9" r="0.5"/>
	<rect x="25.9" y="0.7" class="st0" width="1.3" height="0.4"/>
	<g>
		<polygon class="st1" points="27.2,13.1 23.6,14.3 23.6,15.3 22.9,15.7 28,14.6 27.2,14.2 		"/>
		<polygon class="st1" points="27.2,14.9 23.6,16.1 23.6,17 23.1,17.5 28,16.3 27.2,16 		"/>
		<polygon class="st1" points="23.9,17.8 25.4,19.8 26.2,18.7 25.3,18.8 27.1,18.2 26.8,18 27.2,17.4 27.2,16.7 		"/>
		<path class="st1" d="M22.9,13.9l5.2-1.1l-0.8-0.4l0,0V6.2c0,0,0-0.2,0.3-0.4C27.6,5.7,28,5.4,28,5.4c0.1-0.1,0-0.2-0.1-0.2h-2.5
			h-2.5c-0.1,0-0.1,0.1-0.1,0.2c0,0,0.4,0.3,0.5,0.4c0.3,0.2,0.3,0.4,0.3,0.4v6.2l0,0v1.1L22.9,13.9z"/>
	</g>
	<path class="st1" d="M22.9,13.9l5.2-1.1l-0.8-0.4l0,0V6.1c0,0,0-0.2,0.3-0.4C27.6,5.6,28,5.3,28,5.3c0.1-0.1,0-0.2-0.1-0.2h-2.5
		h-2.5c-0.1,0-0.1,0.1-0.1,0.2c0,0,0.4,0.3,0.5,0.4c0.3,0.2,0.3,0.4,0.3,0.4v6.2l0,0v1.1L22.9,13.9z"/>
	<path class="st0" d="M22.9,13.8l5.2-1.1l-0.8-0.4l0,0V6.1c0,0,0-0.2,0.3-0.4C27.6,5.6,28,5.3,28,5.3c0.1-0.1,0-0.2-0.1-0.2h-2.5
		h-2.5c-0.1,0-0.1,0.1-0.1,0.2c0,0,0.4,0.3,0.5,0.4c0.3,0.2,0.3,0.4,0.3,0.4v6.2l0,0v1.1L22.9,13.8z"/>
	<g>
		<path class="st3" d="M25.3,10.8c0.2,0,0.4,0.1,0.6,0.2c0.2,0.1,0.2,0.3,0.2,0.5c0,0,0,0.2,0,0.4c0,0,0,0.1,0,0.2
			c0,0.1,0,0.1,0,0.2c0,0,0,0,0,0c-0.1,0-0.2,0-0.4,0c-0.2,0-0.3,0-0.4,0c-0.1,0-0.2,0-0.4,0c-0.2,0-0.3,0-0.4,0c0,0,0,0,0,0
			c0-0.1,0-0.1,0-0.3c0-0.2,0-0.4,0-0.5c0-0.2,0.1-0.3,0.1-0.4c0.1-0.1,0.2-0.2,0.3-0.2C25.1,10.9,25.2,10.8,25.3,10.8z M25.3,11.3
			c-0.1,0-0.2,0-0.3,0.1c-0.1,0.1-0.1,0.2-0.1,0.3c0,0.1,0,0.2,0,0.2c0,0,0.1,0,0.2,0c0.1,0,0.2,0,0.2,0s0.1,0,0.2,0
			c0.1,0,0.2,0,0.2,0c0,0,0-0.1,0-0.2c0-0.1,0-0.2-0.1-0.3C25.6,11.3,25.5,11.3,25.3,11.3z"/>
		<path class="st3" d="M25.4,9.9C25.5,9.9,25.5,9.9,25.4,9.9c0,0.1,0,0.1,0,0.1c0,0,0,0,0,0.1c0,0.1,0,0.1,0,0.1c0,0,0.1,0,0.1,0
			c0,0,0.1,0,0.2,0s0.1,0,0.2,0c0,0,0.1,0,0.1,0c0,0,0.1,0,0.1,0c0,0,0,0,0,0c0,0,0,0.1,0,0.2c0,0.1,0,0.1,0,0.2c0,0,0,0,0,0
			c-0.1,0-0.2,0-0.3,0c-0.1,0-0.2,0-0.3,0c-0.2,0-0.3,0-0.5,0c0,0,0,0,0,0c0,0,0,0,0,0c0,0,0-0.1,0-0.2c0-0.1,0-0.2,0-0.2
			c0,0,0,0,0.1,0c0,0,0.1,0,0.1,0c0,0,0,0-0.1-0.1C25,10.1,25,10,25,10c0,0,0-0.1,0-0.1c0,0,0.1,0,0.1,0s0.1,0,0.1,0
			C25.3,9.9,25.3,9.9,25.4,9.9C25.4,9.9,25.4,9.9,25.4,9.9z"/>
		<path class="st3" d="M24.7,9.3c0.1,0,0.2,0.1,0.2,0.2c0,0.1,0,0.1-0.1,0.2c0,0-0.1,0.1-0.2,0.1s-0.1,0-0.2-0.1
			c0,0-0.1-0.1-0.1-0.2c0-0.1,0-0.1,0.1-0.2C24.6,9.3,24.7,9.3,24.7,9.3z M25.6,9.3c0.1,0,0.1,0,0.3,0c0.1,0,0.2,0,0.3,0
			c0,0,0,0,0,0c0,0,0,0.1,0,0.2s0,0.2,0,0.2c0,0,0,0,0,0c0,0,0,0,0,0c-0.1,0-0.1,0-0.3,0c-0.1,0-0.2,0-0.3,0c-0.2,0-0.4,0-0.5,0
			c0,0,0,0,0,0c0,0,0,0,0,0c0,0,0-0.1,0-0.1s0-0.1,0-0.1c0,0,0-0.1,0-0.1s0-0.1,0-0.1c0,0,0,0,0,0c0,0,0,0,0,0
			C25.2,9.3,25.4,9.3,25.6,9.3z"/>
		<path class="st3" d="M25.5,8.7c0.2,0,0.4,0,0.5,0c0,0,0,0,0.1,0c0,0,0.1,0,0.1,0c0,0,0,0,0,0c0,0,0,0.1,0,0.2s0,0.2,0,0.2
			c0,0,0,0,0,0c0,0,0,0,0,0c-0.1,0-0.2,0-0.3,0c-0.1,0-0.2,0-0.3,0c-0.3,0-0.5,0-0.5,0c-0.2,0-0.3,0-0.5,0c0,0,0,0,0,0c0,0,0,0,0,0
			V8.7c0,0,0,0,0,0h0C24.9,8.7,25.2,8.7,25.5,8.7z"/>
		<path class="st3" d="M25.5,8c0.2,0,0.4,0,0.5,0c0,0,0,0,0.1,0c0,0,0.1,0,0.1,0c0,0,0,0,0,0c0,0,0,0.1,0,0.2c0,0.1,0,0.2,0,0.2
			c0,0,0,0,0,0c0,0,0,0,0,0c-0.1,0-0.2,0-0.3,0c-0.1,0-0.2,0-0.3,0c-0.3,0-0.5,0-0.5,0c-0.2,0-0.3,0-0.5,0c0,0,0,0,0,0c0,0,0,0,0,0
			V8c0,0,0,0,0,0h0C24.9,8,25.2,8,25.5,8z"/>
		<path class="st3" d="M25.5,6.8c0.1,0,0.1,0,0.1,0.1c0,0,0,0.1,0,0.2c0,0.1,0,0.2,0,0.4c0,0,0.1,0,0.1-0.1c0,0,0-0.1,0-0.2
			c0-0.1,0-0.1-0.1-0.2c0,0,0-0.1-0.1-0.1c0,0,0,0,0.1-0.1c0.1,0,0.1-0.1,0.1-0.1c0,0,0,0,0,0c0.1,0.1,0.2,0.2,0.2,0.4
			c0,0.2-0.1,0.3-0.2,0.4c-0.1,0.1-0.3,0.2-0.5,0.2c-0.2,0-0.3,0-0.5-0.2c-0.1-0.1-0.2-0.3-0.2-0.4c0-0.1,0.1-0.3,0.2-0.4
			C25.2,6.8,25.4,6.8,25.5,6.8z M25.4,7.2c0,0-0.1,0-0.1,0c0,0-0.1,0.1-0.1,0.1s0,0.1,0.1,0.1c0,0,0.1,0,0.1,0c0,0,0,0,0,0
			C25.5,7.4,25.5,7.3,25.4,7.2C25.5,7.2,25.5,7.2,25.4,7.2z"/>
		<path class="st3" d="M25.4,5.9C25.5,5.9,25.5,5.9,25.4,5.9c0,0.1,0,0.1,0,0.1c0,0,0,0,0,0.1c0,0.1,0,0.1,0,0.1c0,0,0.1,0,0.1,0
			c0,0,0.1,0,0.2,0s0.1,0,0.2,0c0,0,0.1,0,0.1,0c0,0,0.1,0,0.1,0c0,0,0,0,0,0c0,0,0,0.1,0,0.2c0,0.1,0,0.1,0,0.2c0,0,0,0,0,0
			c-0.1,0-0.2,0-0.3,0c-0.1,0-0.2,0-0.3,0c-0.2,0-0.3,0-0.5,0c0,0,0,0,0,0c0,0,0,0,0,0c0,0,0-0.1,0-0.2c0-0.1,0-0.2,0-0.2
			c0,0,0,0,0.1,0c0,0,0.1,0,0.1,0c0,0,0,0-0.1-0.1C25,6.1,25,6,25,5.9c0,0,0-0.1,0-0.1c0,0,0.1,0,0.1,0c0,0,0.1,0,0.1,0
			C25.3,5.9,25.3,5.9,25.4,5.9C25.4,5.9,25.4,5.9,25.4,5.9z"/>
	</g>
	<polygon class="st0" points="27.2,13 23.6,14.2 23.6,15.2 22.9,15.6 28,14.5 27.2,14.1 	"/>
	<polygon class="st0" points="27.2,14.8 23.6,16.1 23.6,16.9 23.1,17.4 28,16.3 27.2,15.9 	"/>
	<polygon class="st0" points="23.9,17.7 25.4,19.8 26.2,18.6 25.3,18.7 27.1,18.1 26.8,17.9 27.2,17.3 27.2,16.6 	"/>
</g>
</svg>
